<svg width="171" height="58" viewBox="0 0 171 58" fill="none" xmlns="http://www.w3.org/2000/svg">
<path d="M15.25 13.8409C15.1288 12.7652 14.6288 11.9318 13.75 11.3409C12.8712 10.7424 11.7652 10.4432 10.4318 10.4432C9.47727 10.4432 8.65152 10.5947 7.95455 10.8977C7.25758 11.1932 6.71591 11.6023 6.32955 12.125C5.95076 12.6402 5.76136 13.2273 5.76136 13.8864C5.76136 14.4394 5.89015 14.9167 6.14773 15.3182C6.41288 15.7197 6.75758 16.0568 7.18182 16.3295C7.61364 16.5947 8.07576 16.8182 8.56818 17C9.06061 17.1742 9.53409 17.3182 9.98864 17.4318L12.2614 18.0227C13.0038 18.2045 13.7652 18.4508 14.5455 18.7614C15.3258 19.072 16.0492 19.4811 16.7159 19.9886C17.3826 20.4962 17.9205 21.125 18.3295 21.875C18.7462 22.625 18.9545 23.5227 18.9545 24.5682C18.9545 25.8864 18.6136 27.0568 17.9318 28.0795C17.2576 29.1023 16.2765 29.9091 14.9886 30.5C13.7083 31.0909 12.1591 31.3864 10.3409 31.3864C8.59848 31.3864 7.09091 31.1098 5.81818 30.5568C4.54545 30.0038 3.54924 29.2197 2.82955 28.2045C2.10985 27.1818 1.71212 25.9697 1.63636 24.5682H5.15909C5.22727 25.4091 5.5 26.1098 5.97727 26.6705C6.46212 27.2235 7.07955 27.6364 7.82955 27.9091C8.58712 28.1742 9.41667 28.3068 10.3182 28.3068C11.3106 28.3068 12.1932 28.1515 12.9659 27.8409C13.7462 27.5227 14.3598 27.0833 14.8068 26.5227C15.2538 25.9545 15.4773 25.2917 15.4773 24.5341C15.4773 23.8447 15.2803 23.2803 14.8864 22.8409C14.5 22.4015 13.9735 22.0379 13.3068 21.75C12.6477 21.4621 11.9015 21.2083 11.0682 20.9886L8.31818 20.2386C6.45455 19.7311 4.97727 18.9848 3.88636 18C2.80303 17.0152 2.26136 15.7121 2.26136 14.0909C2.26136 12.75 2.625 11.5795 3.35227 10.5795C4.07955 9.57954 5.06439 8.80303 6.30682 8.25C7.54924 7.68939 8.95076 7.40909 10.5114 7.40909C12.0871 7.40909 13.4773 7.68561 14.6818 8.23864C15.8939 8.79167 16.8485 9.55303 17.5455 10.5227C18.2424 11.4848 18.6061 12.5909 18.6364 13.8409H15.25ZM26.0996 20.6364V31H22.7018V7.72727H26.0541V16.3864H26.27C26.6791 15.447 27.3041 14.7008 28.145 14.1477C28.9859 13.5947 30.0844 13.3182 31.4405 13.3182C32.6374 13.3182 33.6829 13.5644 34.5768 14.0568C35.4784 14.5492 36.1753 15.2841 36.6677 16.2614C37.1677 17.2311 37.4177 18.4432 37.4177 19.8977V31H34.02V20.3068C34.02 19.0265 33.6905 18.0341 33.0314 17.3295C32.3723 16.6174 31.4556 16.2614 30.2814 16.2614C29.4784 16.2614 28.7587 16.4318 28.1223 16.7727C27.4935 17.1136 26.9973 17.6136 26.6337 18.2727C26.2776 18.9242 26.0996 19.7121 26.0996 20.6364ZM49.1281 31.3523C47.4917 31.3523 46.0637 30.9773 44.844 30.2273C43.6243 29.4773 42.6774 28.428 42.0031 27.0795C41.3289 25.7311 40.9917 24.1553 40.9917 22.3523C40.9917 20.5417 41.3289 18.9583 42.0031 17.6023C42.6774 16.2462 43.6243 15.1932 44.844 14.4432C46.0637 13.6932 47.4917 13.3182 49.1281 13.3182C50.7645 13.3182 52.1925 13.6932 53.4122 14.4432C54.6319 15.1932 55.5789 16.2462 56.2531 17.6023C56.9274 18.9583 57.2645 20.5417 57.2645 22.3523C57.2645 24.1553 56.9274 25.7311 56.2531 27.0795C55.5789 28.428 54.6319 29.4773 53.4122 30.2273C52.1925 30.9773 50.7645 31.3523 49.1281 31.3523ZM49.1395 28.5C50.2001 28.5 51.0789 28.2197 51.7758 27.6591C52.4728 27.0985 52.988 26.3523 53.3213 25.4205C53.6622 24.4886 53.8327 23.4621 53.8327 22.3409C53.8327 21.2273 53.6622 20.2045 53.3213 19.2727C52.988 18.3333 52.4728 17.5795 51.7758 17.0114C51.0789 16.4432 50.2001 16.1591 49.1395 16.1591C48.0713 16.1591 47.1849 16.4432 46.4804 17.0114C45.7834 17.5795 45.2645 18.3333 44.9236 19.2727C44.5902 20.2045 44.4236 21.2273 44.4236 22.3409C44.4236 23.4621 44.5902 24.4886 44.9236 25.4205C45.2645 26.3523 45.7834 27.0985 46.4804 27.6591C47.1849 28.2197 48.0713 28.5 49.1395 28.5ZM60.8811 37.5455V13.5455H64.1993V16.375H64.4834C64.6803 16.0114 64.9644 15.5909 65.3356 15.1136C65.7068 14.6364 66.222 14.2197 66.8811 13.8636C67.5402 13.5 68.4114 13.3182 69.4947 13.3182C70.9038 13.3182 72.1614 13.6742 73.2675 14.3864C74.3735 15.0985 75.2409 16.125 75.8697 17.4659C76.5061 18.8068 76.8243 20.4205 76.8243 22.3068C76.8243 24.1932 76.5099 25.8106 75.8811 27.1591C75.2523 28.5 74.3887 29.5341 73.2902 30.2614C72.1917 30.9811 70.9379 31.3409 69.5288 31.3409C68.4682 31.3409 67.6008 31.1629 66.9265 30.8068C66.2599 30.4508 65.7372 30.0341 65.3584 29.5568C64.9796 29.0795 64.6879 28.6553 64.4834 28.2841H64.2788V37.5455H60.8811ZM64.2106 22.2727C64.2106 23.5 64.3887 24.5758 64.7447 25.5C65.1008 26.4242 65.6159 27.1477 66.2902 27.6705C66.9644 28.1856 67.7902 28.4432 68.7675 28.4432C69.7826 28.4432 70.6311 28.1742 71.3129 27.6364C71.9947 27.0909 72.5099 26.3523 72.8584 25.4205C73.2144 24.4886 73.3925 23.4394 73.3925 22.2727C73.3925 21.1212 73.2182 20.0871 72.8697 19.1705C72.5288 18.2538 72.0137 17.5303 71.3243 17C70.6425 16.4697 69.7902 16.2045 68.7675 16.2045C67.7826 16.2045 66.9493 16.4583 66.2675 16.9659C65.5932 17.4735 65.0818 18.1818 64.7334 19.0909C64.3849 20 64.2106 21.0606 64.2106 22.2727ZM83.6596 31L77.2051 7.72727H80.8983L85.4324 25.75H85.6483L90.3642 7.72727H94.0233L98.7392 25.7614H98.9551L103.478 7.72727H107.182L100.716 31H97.1824L92.2846 13.5682H92.1028L87.2051 31H83.6596ZM113.296 31.3864C112.19 31.3864 111.19 31.1818 110.296 30.7727C109.402 30.3561 108.694 29.7538 108.171 28.9659C107.656 28.178 107.398 27.2121 107.398 26.0682C107.398 25.0833 107.588 24.2727 107.967 23.6364C108.345 23 108.857 22.4962 109.501 22.125C110.145 21.7538 110.864 21.4735 111.66 21.2841C112.455 21.0947 113.266 20.9508 114.092 20.8523C115.137 20.7311 115.986 20.6326 116.637 20.5568C117.289 20.4735 117.762 20.3409 118.058 20.1591C118.353 19.9773 118.501 19.6818 118.501 19.2727V19.1932C118.501 18.2008 118.22 17.4318 117.66 16.8864C117.107 16.3409 116.281 16.0682 115.183 16.0682C114.039 16.0682 113.137 16.322 112.478 16.8295C111.826 17.3295 111.376 17.8864 111.126 18.5L107.933 17.7727C108.311 16.7121 108.864 15.8561 109.592 15.2045C110.326 14.5455 111.171 14.0682 112.126 13.7727C113.08 13.4697 114.084 13.3182 115.137 13.3182C115.834 13.3182 116.573 13.4015 117.353 13.5682C118.141 13.7273 118.876 14.0227 119.558 14.4545C120.247 14.8864 120.811 15.5038 121.251 16.3068C121.69 17.1023 121.91 18.1364 121.91 19.4091V31H118.592V28.6136H118.455C118.236 29.053 117.906 29.4848 117.467 29.9091C117.027 30.3333 116.463 30.6856 115.773 30.9659C115.084 31.2462 114.258 31.3864 113.296 31.3864ZM114.035 28.6591C114.974 28.6591 115.777 28.4735 116.444 28.1023C117.118 27.7311 117.629 27.2462 117.978 26.6477C118.334 26.0417 118.512 25.3939 118.512 24.7045V22.4545C118.391 22.5758 118.156 22.6894 117.808 22.7955C117.467 22.8939 117.076 22.9811 116.637 23.0568C116.198 23.125 115.77 23.1894 115.353 23.25C114.936 23.303 114.588 23.3485 114.308 23.3864C113.648 23.4697 113.046 23.6098 112.501 23.8068C111.963 24.0038 111.531 24.2879 111.205 24.6591C110.887 25.0227 110.728 25.5076 110.728 26.1136C110.728 26.9545 111.039 27.5909 111.66 28.0227C112.281 28.447 113.073 28.6591 114.035 28.6591ZM129.657 7.72727V31H126.259V7.72727H129.657ZM137.45 7.72727V31H134.052V7.72727H137.45ZM149.368 31.3523C147.648 31.3523 146.167 30.9848 144.924 30.25C143.69 29.5076 142.735 28.4659 142.061 27.125C141.394 25.7765 141.061 24.197 141.061 22.3864C141.061 20.5985 141.394 19.0227 142.061 17.6591C142.735 16.2955 143.674 15.2311 144.879 14.4659C146.091 13.7008 147.508 13.3182 149.129 13.3182C150.114 13.3182 151.068 13.4811 151.993 13.8068C152.917 14.1326 153.746 14.6439 154.481 15.3409C155.216 16.0379 155.796 16.9432 156.22 18.0568C156.644 19.1629 156.856 20.5076 156.856 22.0909V23.2955H142.981V20.75H153.527C153.527 19.8561 153.345 19.0644 152.981 18.375C152.618 17.678 152.106 17.1288 151.447 16.7273C150.796 16.3258 150.03 16.125 149.152 16.125C148.197 16.125 147.364 16.3598 146.652 16.8295C145.947 17.2917 145.402 17.8977 145.015 18.6477C144.637 19.3902 144.447 20.197 144.447 21.0682V23.0568C144.447 24.2235 144.652 25.2159 145.061 26.0341C145.477 26.8523 146.057 27.4773 146.799 27.9091C147.542 28.3333 148.409 28.5455 149.402 28.5455C150.046 28.5455 150.633 28.4545 151.163 28.2727C151.693 28.0833 152.152 27.803 152.538 27.4318C152.924 27.0606 153.22 26.6023 153.424 26.0568L156.64 26.6364C156.383 27.5833 155.921 28.4129 155.254 29.125C154.595 29.8295 153.765 30.3788 152.765 30.7727C151.773 31.1591 150.64 31.3523 149.368 31.3523ZM168.598 13.5455V16.2727H159.064V13.5455H168.598ZM161.621 9.36364H165.018V25.875C165.018 26.5341 165.117 27.0303 165.314 27.3636C165.511 27.6894 165.764 27.9129 166.075 28.0341C166.393 28.1477 166.738 28.2045 167.109 28.2045C167.382 28.2045 167.621 28.1856 167.825 28.1477C168.03 28.1098 168.189 28.0795 168.302 28.0568L168.916 30.8636C168.719 30.9394 168.439 31.0152 168.075 31.0909C167.711 31.1742 167.257 31.2197 166.711 31.2273C165.818 31.2424 164.984 31.0833 164.211 30.75C163.439 30.4167 162.814 29.9015 162.336 29.2045C161.859 28.5076 161.621 27.6326 161.621 26.5795V9.36364Z" fill="#eee"/>
<path d="M1.99929 57.8636V47.3636H3.45099V48.6016H3.57528C3.66146 48.4425 3.78575 48.2585 3.94815 48.0497C4.11056 47.8409 4.33594 47.6586 4.62429 47.5028C4.91264 47.3438 5.2938 47.2642 5.76776 47.2642C6.38423 47.2642 6.93442 47.42 7.41832 47.7315C7.90223 48.0431 8.28172 48.4922 8.55682 49.0788C8.83523 49.6655 8.97443 50.3714 8.97443 51.1967C8.97443 52.022 8.83688 52.7296 8.56179 53.3196C8.2867 53.9062 7.90885 54.3587 7.42827 54.6768C6.94768 54.9917 6.39915 55.1491 5.78267 55.1491C5.31866 55.1491 4.93916 55.0713 4.64418 54.9155C4.35251 54.7597 4.12382 54.5774 3.9581 54.3686C3.79238 54.1598 3.66477 53.9742 3.57528 53.8118H3.4858V57.8636H1.99929ZM3.45597 51.1818C3.45597 51.7187 3.53385 52.1894 3.68963 52.5938C3.84541 52.9981 4.07079 53.3146 4.36577 53.5433C4.66075 53.7687 5.02202 53.8814 5.44957 53.8814C5.8937 53.8814 6.26491 53.7637 6.56321 53.5284C6.86151 53.2898 7.08688 52.9666 7.23935 52.5589C7.39512 52.1513 7.47301 51.6922 7.47301 51.1818C7.47301 50.678 7.39678 50.2256 7.24432 49.8246C7.09517 49.4235 6.86979 49.107 6.56818 48.875C6.26989 48.643 5.89702 48.527 5.44957 48.527C5.0187 48.527 4.65412 48.638 4.35582 48.8601C4.06084 49.0821 3.83712 49.392 3.68466 49.7898C3.5322 50.1875 3.45597 50.6515 3.45597 51.1818ZM13.6805 55.1541C12.9646 55.1541 12.3399 54.9901 11.8062 54.6619C11.2726 54.3338 10.8583 53.8748 10.5633 53.2848C10.2684 52.6948 10.1209 52.0054 10.1209 51.2166C10.1209 50.4245 10.2684 49.7318 10.5633 49.1385C10.8583 48.5452 11.2726 48.0845 11.8062 47.7564C12.3399 47.4283 12.9646 47.2642 13.6805 47.2642C14.3964 47.2642 15.0212 47.4283 15.5548 47.7564C16.0884 48.0845 16.5027 48.5452 16.7977 49.1385C17.0927 49.7318 17.2402 50.4245 17.2402 51.2166C17.2402 52.0054 17.0927 52.6948 16.7977 53.2848C16.5027 53.8748 16.0884 54.3338 15.5548 54.6619C15.0212 54.9901 14.3964 55.1541 13.6805 55.1541ZM13.6855 53.9062C14.1495 53.9062 14.534 53.7836 14.8389 53.5384C15.1438 53.2931 15.3692 52.9666 15.5151 52.5589C15.6642 52.1513 15.7388 51.7022 15.7388 51.2116C15.7388 50.7244 15.6642 50.277 15.5151 49.8693C15.3692 49.4583 15.1438 49.1286 14.8389 48.88C14.534 48.6314 14.1495 48.5071 13.6855 48.5071C13.2182 48.5071 12.8304 48.6314 12.5222 48.88C12.2172 49.1286 11.9902 49.4583 11.841 49.8693C11.6952 50.277 11.6223 50.7244 11.6223 51.2116C11.6223 51.7022 11.6952 52.1513 11.841 52.5589C11.9902 52.9666 12.2172 53.2931 12.5222 53.5384C12.8304 53.7836 13.2182 53.9062 13.6855 53.9062ZM20.1466 55L17.8994 47.3636H19.4356L20.9321 52.9716H21.0067L22.5081 47.3636H24.0443L25.5358 52.9467H25.6104L27.0969 47.3636H28.6331L26.3909 55H24.8746L23.3234 49.4865H23.2091L21.6579 55H20.1466ZM32.9265 55.1541C32.1742 55.1541 31.5262 54.9934 30.9827 54.6719C30.4424 54.3471 30.0248 53.8913 29.7298 53.3047C29.4381 52.7147 29.2923 52.0237 29.2923 51.2315C29.2923 50.4493 29.4381 49.7599 29.7298 49.1634C30.0248 48.5668 30.4358 48.1011 30.9628 47.7663C31.4931 47.4316 32.1129 47.2642 32.8221 47.2642C33.253 47.2642 33.6706 47.3355 34.075 47.478C34.4793 47.6205 34.8423 47.8442 35.1638 48.1491C35.4853 48.4541 35.7388 48.8501 35.9244 49.3374C36.11 49.8213 36.2028 50.4096 36.2028 51.1023V51.6293H30.1325V50.5156H34.7461C34.7461 50.1245 34.6666 49.7782 34.5075 49.4766C34.3484 49.1716 34.1247 48.9313 33.8363 48.7557C33.5513 48.58 33.2166 48.4922 32.8321 48.4922C32.4145 48.4922 32.0499 48.5949 31.7383 48.8004C31.4301 49.0026 31.1915 49.2678 31.0224 49.5959C30.8567 49.9207 30.7738 50.2737 30.7738 50.6548V51.5249C30.7738 52.0353 30.8633 52.4695 31.0423 52.8274C31.2246 53.1854 31.4782 53.4588 31.803 53.6477C32.1278 53.8333 32.5073 53.9261 32.9415 53.9261C33.2232 53.9261 33.48 53.8864 33.7121 53.8068C33.9441 53.724 34.1446 53.6013 34.3136 53.4389C34.4827 53.2765 34.6119 53.076 34.7014 52.8374L36.1084 53.0909C35.9957 53.5052 35.7935 53.8681 35.5018 54.1797C35.2135 54.4879 34.8506 54.7282 34.4131 54.9006C33.9789 55.0696 33.4834 55.1541 32.9265 55.1541ZM37.6762 55V47.3636H39.1129V48.5767H39.1925C39.3317 48.1657 39.577 47.8426 39.9283 47.6072C40.2829 47.3686 40.684 47.2493 41.1314 47.2493C41.2242 47.2493 41.3336 47.2526 41.4595 47.2592C41.5888 47.2659 41.6899 47.2741 41.7628 47.2841V48.706C41.7031 48.6894 41.5971 48.6712 41.4446 48.6513C41.2922 48.6281 41.1397 48.6165 40.9872 48.6165C40.6359 48.6165 40.3227 48.6911 40.0476 48.8402C39.7758 48.986 39.5604 49.1899 39.4013 49.4517C39.2422 49.7102 39.1627 50.0052 39.1627 50.3366V55H37.6762ZM45.891 55.1541C45.1386 55.1541 44.4906 54.9934 43.9471 54.6719C43.4068 54.3471 42.9892 53.8913 42.6942 53.3047C42.4026 52.7147 42.2567 52.0237 42.2567 51.2315C42.2567 50.4493 42.4026 49.7599 42.6942 49.1634C42.9892 48.5668 43.4002 48.1011 43.9272 47.7663C44.4575 47.4316 45.0773 47.2642 45.7865 47.2642C46.2174 47.2642 46.635 47.3355 47.0394 47.478C47.4437 47.6205 47.8067 47.8442 48.1282 48.1491C48.4497 48.4541 48.7032 48.8501 48.8888 49.3374C49.0744 49.8213 49.1672 50.4096 49.1672 51.1023V51.6293H43.0969V50.5156H47.7106C47.7106 50.1245 47.631 49.7782 47.4719 49.4766C47.3128 49.1716 47.0891 48.9313 46.8008 48.7557C46.5157 48.58 46.181 48.4922 45.7965 48.4922C45.3789 48.4922 45.0143 48.5949 44.7027 48.8004C44.3945 49.0026 44.1559 49.2678 43.9868 49.5959C43.8211 49.9207 43.7383 50.2737 43.7383 50.6548V51.5249C43.7383 52.0353 43.8277 52.4695 44.0067 52.8274C44.189 53.1854 44.4426 53.4588 44.7674 53.6477C45.0922 53.8333 45.4717 53.9261 45.9059 53.9261C46.1876 53.9261 46.4445 53.8864 46.6765 53.8068C46.9085 53.724 47.109 53.6013 47.278 53.4389C47.4471 53.2765 47.5763 53.076 47.6658 52.8374L49.0728 53.0909C48.9601 53.5052 48.7579 53.8681 48.4662 54.1797C48.1779 54.4879 47.815 54.7282 47.3775 54.9006C46.9433 55.0696 46.4478 55.1541 45.891 55.1541ZM53.4992 55.1491C52.8827 55.1491 52.3326 54.9917 51.8487 54.6768C51.3681 54.3587 50.9902 53.9062 50.7151 53.3196C50.4433 52.7296 50.3075 52.022 50.3075 51.1967C50.3075 50.3714 50.445 49.6655 50.7201 49.0788C50.9985 48.4922 51.3797 48.0431 51.8636 47.7315C52.3475 47.42 52.896 47.2642 53.5092 47.2642C53.9831 47.2642 54.3643 47.3438 54.6526 47.5028C54.9443 47.6586 55.1697 47.8409 55.3288 48.0497C55.4912 48.2585 55.6171 48.4425 55.7066 48.6016H55.7961V44.8182H57.2826V55H55.8309V53.8118H55.7066C55.6171 53.9742 55.4879 54.1598 55.3188 54.3686C55.1531 54.5774 54.9244 54.7597 54.6327 54.9155C54.3411 55.0713 53.9632 55.1491 53.4992 55.1491ZM53.8273 53.8814C54.2549 53.8814 54.6162 53.7687 54.9112 53.5433C55.2094 53.3146 55.4348 52.9981 55.5873 52.5938C55.7431 52.1894 55.821 51.7187 55.821 51.1818C55.821 50.6515 55.7447 50.1875 55.5923 49.7898C55.4398 49.392 55.2161 49.0821 54.9211 48.8601C54.6261 48.638 54.2615 48.527 53.8273 48.527C53.3799 48.527 53.007 48.643 52.7087 48.875C52.4104 49.107 52.1851 49.4235 52.0326 49.8246C51.8835 50.2256 51.8089 50.678 51.8089 51.1818C51.8089 51.6922 51.8851 52.1513 52.0376 52.5589C52.19 52.9666 52.4154 53.2898 52.7137 53.5284C53.0153 53.7637 53.3865 53.8814 53.8273 53.8814ZM62.8766 55V44.8182H64.3631V48.6016H64.4526C64.5388 48.4425 64.6631 48.2585 64.8255 48.0497C64.9879 47.8409 65.2133 47.6586 65.5016 47.5028C65.79 47.3438 66.1711 47.2642 66.6451 47.2642C67.2616 47.2642 67.8118 47.42 68.2957 47.7315C68.7796 48.0431 69.1591 48.4922 69.4342 49.0788C69.7126 49.6655 69.8518 50.3714 69.8518 51.1967C69.8518 52.022 69.7142 52.7296 69.4391 53.3196C69.164 53.9062 68.7862 54.3587 68.3056 54.6768C67.825 54.9917 67.2765 55.1491 66.66 55.1491C66.196 55.1491 65.8165 55.0713 65.5215 54.9155C65.2298 54.7597 65.0011 54.5774 64.8354 54.3686C64.6697 54.1598 64.5421 53.9742 64.4526 53.8118H64.3283V55H62.8766ZM64.3333 51.1818C64.3333 51.7187 64.4112 52.1894 64.567 52.5938C64.7227 52.9981 64.9481 53.3146 65.2431 53.5433C65.5381 53.7687 65.8994 53.8814 66.3269 53.8814C66.771 53.8814 67.1422 53.7637 67.4405 53.5284C67.7388 53.2898 67.9642 52.9666 68.1167 52.5589C68.2725 52.1513 68.3503 51.6922 68.3503 51.1818C68.3503 50.678 68.2741 50.2256 68.1217 49.8246C67.9725 49.4235 67.7471 49.107 67.4455 48.875C67.1472 48.643 66.7744 48.527 66.3269 48.527C65.896 48.527 65.5315 48.638 65.2332 48.8601C64.9382 49.0821 64.7145 49.392 64.562 49.7898C64.4095 50.1875 64.3333 50.6515 64.3333 51.1818ZM72.0248 57.8636C71.8028 57.8636 71.6006 57.8454 71.4183 57.8089C71.236 57.7758 71.1001 57.7393 71.0106 57.6996L71.3686 56.4815C71.6404 56.5545 71.8823 56.5859 72.0944 56.576C72.3066 56.5661 72.4938 56.4865 72.6562 56.3374C72.822 56.1882 72.9678 55.9446 73.0937 55.6065L73.2777 55.0994L70.4836 47.3636H72.0746L74.0085 53.2898H74.0881L76.022 47.3636H77.6179L74.4709 56.0192C74.325 56.4169 74.1394 56.7533 73.914 57.0284C73.6887 57.3068 73.4202 57.5156 73.1086 57.6548C72.7971 57.794 72.4358 57.8636 72.0248 57.8636Z" fill="#ddd"/>
<path fill-rule="evenodd" clip-rule="evenodd" d="M83.0217 44.1287C83 44.1718 83 44.2282 83 44.341V54.5444C83 54.6573 83 54.7137 83.0217 54.7568C83.0408 54.7947 83.0712 54.8255 83.1087 54.8448C83.1513 54.8667 83.2071 54.8667 83.3186 54.8667H84.0598C84.1714 54.8667 84.2271 54.8667 84.2697 54.8448C84.3072 54.8255 84.3376 54.7947 84.3567 54.7568C84.3784 54.7137 84.3784 54.6573 84.3784 54.5444V54.1843C85.0077 54.6947 85.8065 55 86.6758 55C88.7058 55 90.3515 53.3348 90.3515 51.2807C90.3515 49.2265 88.7058 47.5613 86.6758 47.5613C85.8065 47.5613 85.0077 47.8666 84.3784 48.3771V44.341C84.3784 44.2282 84.3784 44.1718 84.3567 44.1287C84.3376 44.0908 84.3072 44.06 84.2697 44.0406C84.2271 44.0187 84.1714 44.0187 84.0598 44.0187H83.3186C83.2071 44.0187 83.1513 44.0187 83.1087 44.0406C83.0712 44.06 83.0408 44.0908 83.0217 44.1287ZM84.3784 51.2807C84.3784 52.5645 85.407 53.6052 86.6758 53.6052C87.9445 53.6052 88.9731 52.5645 88.9731 51.2807C88.9731 49.9969 87.9445 48.9561 86.6758 48.9561C85.407 48.9561 84.3784 49.9969 84.3784 51.2807Z" fill="#F25C2B"/>
<path d="M120.29 47.8635C120.268 47.9066 120.268 47.9631 120.268 48.0759V51.5782C120.265 51.8116 120.216 52.0423 120.124 52.2581C120.029 52.4818 119.89 52.685 119.714 52.8562C119.665 52.9045 119.613 52.95 119.558 52.9926C119.412 53.1255 119.245 53.233 119.066 53.3107C118.847 53.4049 118.614 53.4534 118.377 53.4534C118.141 53.4534 117.907 53.4049 117.689 53.3107C117.509 53.2329 117.343 53.1252 117.196 52.992C117.142 52.9496 117.09 52.9043 117.041 52.8562C116.865 52.685 116.726 52.4818 116.631 52.2581C116.539 52.0423 116.49 51.8116 116.487 51.5782H116.487V48.076C116.487 47.9632 116.487 47.9068 116.465 47.8637C116.446 47.8258 116.415 47.795 116.378 47.7757C116.335 47.7537 116.28 47.7537 116.168 47.7537H115.427C115.315 47.7537 115.259 47.7537 115.217 47.7757C115.179 47.795 115.149 47.8258 115.13 47.8637C115.108 47.9068 115.108 47.9632 115.108 48.076V51.5782C115.108 52.026 115.193 52.4693 115.357 52.883C115.369 52.9132 115.381 52.9432 115.394 52.973C115.557 53.3512 115.784 53.6956 116.066 53.9891C116.369 54.3057 116.73 54.5568 117.126 54.7281C117.523 54.8995 117.948 54.9877 118.377 54.9877C118.807 54.9877 119.232 54.8995 119.629 54.7281C120.025 54.5568 120.386 54.3057 120.689 53.9891C120.971 53.6956 121.198 53.3512 121.361 52.973C121.373 52.9432 121.386 52.9132 121.398 52.883C121.562 52.4693 121.647 52.026 121.647 51.5783V48.0759C121.647 47.9631 121.647 47.9066 121.625 47.8635C121.606 47.8256 121.576 47.7948 121.538 47.7755C121.495 47.7535 121.44 47.7535 121.328 47.7535H120.587C120.475 47.7535 120.42 47.7535 120.377 47.7755C120.34 47.7948 120.309 47.8256 120.29 47.8635Z" fill="#F25C2B"/>
<path d="M91.4773 44.3223C91.4773 44.2095 91.4773 44.1531 91.499 44.11C91.5181 44.0721 91.5486 44.0413 91.586 44.022C91.6286 44 91.6844 44 91.7959 44H92.5372C92.6486 44 92.7044 44 92.747 44.022C92.7845 44.0413 92.8149 44.0721 92.834 44.11C92.8557 44.1531 92.8557 44.2095 92.8557 44.3223V54.5257C92.8557 54.6386 92.8557 54.695 92.834 54.7381C92.8149 54.776 92.7845 54.8068 92.747 54.8261C92.7044 54.8481 92.6486 54.8481 92.5372 54.8481H91.7959C91.6844 54.8481 91.6286 54.8481 91.586 54.8261C91.5486 54.8068 91.5181 54.776 91.499 54.7381C91.4773 54.695 91.4773 54.6386 91.4773 54.5257V44.3223Z" fill="#F25C2B"/>
<path fill-rule="evenodd" clip-rule="evenodd" d="M97.657 53.5929C98.9257 53.5929 99.9543 52.5521 99.9543 51.2683C99.9543 49.9845 98.9257 48.9437 97.657 48.9437C96.3882 48.9437 95.3596 49.9845 95.3596 51.2683C95.3596 52.5521 96.3882 53.5929 97.657 53.5929ZM97.657 54.9876C99.687 54.9876 101.333 53.3224 101.333 51.2683C101.333 49.2141 99.687 47.549 97.657 47.549C95.6269 47.549 93.9812 49.2141 93.9812 51.2683C93.9812 53.3224 95.6269 54.9876 97.657 54.9876Z" fill="#F25C2B"/>
<path fill-rule="evenodd" clip-rule="evenodd" d="M110.294 53.5929C111.563 53.5929 112.591 52.5521 112.591 51.2683C112.591 49.9845 111.563 48.9437 110.294 48.9437C109.025 48.9437 107.997 49.9845 107.997 51.2683C107.997 52.5521 109.025 53.5929 110.294 53.5929ZM110.294 54.9876C112.324 54.9876 113.97 53.3224 113.97 51.2683C113.97 49.2141 112.324 47.549 110.294 47.549C108.264 47.549 106.618 49.2141 106.618 51.2683C106.618 53.3224 108.264 54.9876 110.294 54.9876Z" fill="#F25C2B"/>
<path d="M102.793 44C102.682 44 102.626 44 102.583 44.022C102.546 44.0413 102.516 44.0721 102.496 44.11C102.475 44.1531 102.475 44.2095 102.475 44.3223V45.6266H102.004C101.896 45.6266 101.841 45.627 101.799 45.6486C101.762 45.6679 101.731 45.6987 101.712 45.7366C101.69 45.7797 101.69 45.8361 101.69 45.9489V46.699C101.69 46.8118 101.69 46.8683 101.712 46.9114C101.731 46.9493 101.762 46.9801 101.799 46.9994C101.842 47.0213 101.897 47.0213 102.009 47.0213H102.475V52.6136H102.473C102.472 52.6228 102.472 52.6321 102.471 52.6413C102.472 52.6627 102.473 52.6841 102.475 52.7054V52.7588L102.478 52.7587C102.539 53.9288 103.494 54.8462 104.652 54.8481C104.877 54.8479 105.101 54.8124 105.314 54.7432C105.407 54.7132 105.48 54.6021 105.48 54.5034L105.482 53.4719C105.482 53.4565 105.479 53.432 105.475 53.4172C105.475 53.4145 105.474 53.4117 105.473 53.4089C105.467 53.3865 105.448 53.3535 105.429 53.34C105.424 53.3364 105.359 53.2992 105.305 53.3324C105.247 53.3596 105.246 53.36 105.245 53.3605C105.23 53.3676 105.18 53.3866 105.157 53.4003C104.954 53.4871 104.924 53.4851 104.864 53.4936C104.824 53.4993 104.783 53.5022 104.741 53.5022C104.664 53.5022 104.586 53.4919 104.511 53.4716C104.436 53.4513 104.364 53.4211 104.297 53.3818C104.261 53.3578 104.227 53.3312 104.195 53.3023C104.176 53.2888 104.157 53.2746 104.14 53.2595C104.131 53.2529 104.122 53.246 104.113 53.239C104.111 53.236 104.109 53.233 104.106 53.2299C103.945 53.0775 103.854 52.8645 103.853 52.6413C103.854 52.6341 103.854 52.6268 103.855 52.6196C103.855 52.6143 103.854 52.6089 103.853 52.6036V47.0213H105.143C105.254 47.0213 105.31 47.0213 105.353 46.9994C105.39 46.9801 105.421 46.9493 105.44 46.9114C105.461 46.8683 105.461 46.8118 105.461 46.699V45.9489C105.461 45.8361 105.461 45.7797 105.44 45.7366C105.421 45.6987 105.39 45.6679 105.353 45.6486C105.31 45.6266 105.254 45.6266 105.143 45.6266H103.853V44.3223C103.853 44.2095 103.853 44.1531 103.831 44.11C103.812 44.0721 103.782 44.0413 103.744 44.022C103.702 44 103.646 44 103.535 44H102.793Z" fill="#F25C2B"/>
<path d="M123.093 44.016C122.982 44.016 122.926 44.016 122.884 44.038C122.846 44.0573 122.816 44.0881 122.797 44.126C122.775 44.1691 122.775 44.2255 122.775 44.3383V45.6426H122.304C122.196 45.6426 122.141 45.643 122.099 45.6646C122.062 45.6839 122.031 45.7147 122.012 45.7526C121.99 45.7957 121.99 45.8521 121.99 45.9649V46.715C121.99 46.8278 121.99 46.8842 122.012 46.9273C122.031 46.9653 122.062 46.9961 122.099 47.0154C122.142 47.0373 122.198 47.0373 122.309 47.0373H122.775V52.6296H122.773C122.772 52.6388 122.772 52.6481 122.771 52.6573C122.772 52.6787 122.773 52.7001 122.775 52.7214V52.7748L122.778 52.7747C122.839 53.9448 123.794 54.8622 124.952 54.864C125.177 54.8639 125.401 54.8284 125.614 54.7592C125.707 54.7292 125.78 54.618 125.78 54.5194L125.782 53.4879C125.782 53.4725 125.779 53.448 125.775 53.4332C125.775 53.4305 125.774 53.4277 125.773 53.4249C125.767 53.4025 125.748 53.3695 125.729 53.356C125.724 53.3524 125.659 53.3152 125.605 53.3483C125.547 53.3756 125.546 53.376 125.545 53.3765C125.53 53.3836 125.48 53.4026 125.457 53.4163C125.254 53.503 125.224 53.5011 125.164 53.5096C125.124 53.5153 125.083 53.5182 125.041 53.5182C124.964 53.5182 124.886 53.5079 124.812 53.4876C124.737 53.4673 124.664 53.4371 124.597 53.3978C124.561 53.3738 124.527 53.3472 124.495 53.3183C124.476 53.3048 124.458 53.2906 124.44 53.2755C124.431 53.2689 124.422 53.262 124.413 53.255C124.411 53.252 124.409 53.249 124.406 53.2459C124.245 53.0935 124.154 52.8805 124.153 52.6573C124.154 52.6501 124.155 52.6428 124.155 52.6356C124.155 52.6303 124.154 52.6249 124.153 52.6196V47.0373H125.443C125.554 47.0373 125.61 47.0373 125.653 47.0154C125.69 46.9961 125.721 46.9653 125.74 46.9273C125.761 46.8842 125.761 46.8278 125.761 46.715V45.9649C125.761 45.8521 125.761 45.7957 125.74 45.7526C125.721 45.7147 125.69 45.6839 125.653 45.6646C125.61 45.6426 125.554 45.6426 125.443 45.6426H124.153V44.3383C124.153 44.2255 124.153 44.1691 124.132 44.126C124.112 44.0881 124.082 44.0573 124.045 44.038C124.002 44.016 123.946 44.016 123.835 44.016H123.093Z" fill="#F25C2B"/>
</svg>
