<svg xmlns="http://www.w3.org/2000/svg" width="93" height="24" fill="none" overflow="visible"><g><path d="M 77.104 19.101 L 77.104 1.061 L 81.658 1.061 L 82.008 2.476 L 82.184 2.476 C 82.441 2.099 82.849 1.768 83.41 1.486 C 83.97 1.203 84.613 1.061 85.337 1.061 L 88.735 1.061 L 88.735 6.119 L 85.582 6.119 C 83.457 6.119 82.394 7.216 82.394 9.409 L 82.394 19.101 Z M 66.743 19.455 C 64.968 19.455 63.369 19.055 61.944 18.253 C 60.544 17.452 59.383 16.292 58.58 14.892 C 57.763 13.454 57.354 11.85 57.354 10.082 C 57.354 8.313 57.763 6.721 58.58 5.306 C 59.369 3.896 60.533 2.733 61.944 1.946 C 63.369 1.12 64.968 0.707 66.743 0.707 C 68.425 0.707 69.955 1.109 71.333 1.91 C 72.716 2.694 73.856 3.845 74.626 5.235 C 75.42 6.627 75.817 8.171 75.817 9.869 C 75.817 10.506 75.759 11.096 75.642 11.638 L 62.609 11.638 C 62.749 12.628 63.205 13.466 63.976 14.149 C 64.746 14.81 65.669 15.14 66.743 15.14 C 67.538 15.14 68.215 14.987 68.775 14.68 C 69.336 14.373 69.757 14.055 70.037 13.725 L 75.362 13.725 C 75.128 14.527 74.661 15.364 73.961 16.236 C 73.26 17.109 72.29 17.864 71.053 18.5 C 69.838 19.137 68.402 19.455 66.743 19.455 Z M 70.597 8.419 C 70.457 7.428 70.037 6.603 69.336 5.943 C 68.635 5.283 67.771 4.952 66.743 4.952 C 65.646 4.952 64.735 5.282 64.011 5.943 C 63.287 6.603 62.82 7.428 62.609 8.419 Z M 37.786 24 L 37.786 1.061 L 42.34 1.061 L 42.691 2.83 L 42.866 2.83 C 43.309 2.217 43.975 1.71 44.863 1.309 C 45.774 0.908 46.813 0.707 47.981 0.707 C 49.499 0.707 50.889 1.109 52.15 1.91 C 53.411 2.688 54.415 3.797 55.163 5.235 C 55.91 6.65 56.284 8.265 56.284 10.082 C 56.284 11.897 55.91 13.524 55.163 14.963 C 54.415 16.378 53.411 17.486 52.15 18.288 C 50.889 19.066 49.499 19.455 47.981 19.455 C 46.883 19.455 45.902 19.267 45.038 18.889 C 44.197 18.512 43.602 18.099 43.251 17.651 L 43.076 17.651 L 43.076 24 Z M 47.035 14.538 C 48.179 14.538 49.125 14.137 49.873 13.336 C 50.62 12.511 50.994 11.425 50.994 10.081 C 50.994 8.737 50.62 7.664 49.873 6.862 C 49.125 6.061 48.179 5.659 47.035 5.659 C 45.89 5.659 44.945 6.061 44.197 6.862 C 43.45 7.664 43.076 8.737 43.076 10.081 C 43.076 11.425 43.45 12.51 44.197 13.336 C 44.945 14.137 45.89 14.538 47.035 14.538 Z M 25.912 19.455 C 24.557 19.455 23.343 19.149 22.269 18.535 C 21.218 17.922 20.388 17.05 19.781 15.918 C 19.198 14.762 18.905 13.43 18.905 11.921 L 18.905 1.061 L 24.195 1.061 L 24.195 11.036 C 24.195 12.027 24.488 12.841 25.071 13.477 C 25.679 14.09 26.473 14.397 27.454 14.397 C 28.435 14.397 29.217 14.09 29.801 13.477 C 30.408 12.84 30.712 12.027 30.712 11.036 L 30.712 1.061 L 36.002 1.061 L 36.002 19.102 L 31.448 19.102 L 31.097 17.51 L 30.922 17.51 C 30.455 18.052 29.778 18.512 28.89 18.889 C 28.003 19.267 27.01 19.455 25.912 19.455 Z M 8.816 20.163 C 6.713 20.163 5.003 19.808 3.686 19.097 C 2.369 18.362 1.419 17.5 0.836 16.51 C 0.279 15.521 0 14.596 0 13.733 L 5.586 13.733 C 5.586 14.266 5.852 14.748 6.384 15.179 C 6.941 15.585 7.752 15.788 8.815 15.788 C 9.854 15.788 10.614 15.636 11.096 15.331 C 11.602 15.002 11.855 14.608 11.855 14.152 C 11.855 13.67 11.691 13.29 11.361 13.011 C 11.032 12.732 10.449 12.529 9.613 12.402 L 6.725 11.945 C 2.293 11.261 0.076 9.333 0.076 6.163 C 0.076 5.047 0.406 4.02 1.064 3.082 C 1.722 2.143 2.698 1.395 3.99 0.837 C 5.282 0.279 6.827 0 8.626 0 C 10.45 0 12.007 0.33 13.299 0.989 C 14.591 1.623 15.566 2.435 16.225 3.424 C 16.884 4.388 17.213 5.339 17.213 6.277 L 11.665 6.277 C 11.665 5.77 11.387 5.326 10.829 4.945 C 10.297 4.565 9.563 4.375 8.626 4.375 C 7.713 4.375 7.004 4.552 6.498 4.907 C 6.016 5.237 5.776 5.63 5.776 6.087 C 5.776 6.822 6.51 7.304 7.98 7.532 L 11.019 7.989 C 15.351 8.623 17.517 10.652 17.517 14.076 C 17.517 15.192 17.187 16.219 16.529 17.157 C 15.896 18.07 14.92 18.806 13.603 19.364 C 12.311 19.896 10.715 20.163 8.815 20.163 Z" fill="rgb(255,255,255)"></path><path d="M 86 15.5 C 86 13.567 87.567 12 89.5 12 C 91.433 12 93 13.567 93 15.5 C 93 17.433 91.433 19 89.5 19 C 87.567 19 86 17.433 86 15.5 Z" fill="rgb(255,255,255)" opacity="0.6"></path></g></svg>