<svg width="111" height="24" viewBox="0 0 111 24" fill="none" xmlns="http://www.w3.org/2000/svg">
<g clip-path="url(#clip0_7744_9570)">
<path d="M0 0H24.0401C24.0401 3.05774 24.0412 6.11601 24.0396 9.17375C24.785 7.96257 25.9996 7.06111 27.3664 6.68435C28.5422 6.35441 29.8002 6.35601 30.9882 6.61942C31.9735 6.84399 32.9127 7.32559 33.6146 8.06155C34.4142 8.88532 34.8822 9.98528 35.0759 11.1081C35.2574 12.0958 35.1857 13.1037 35.2006 14.102C35.2001 17.2827 35.2011 20.4639 35.2001 23.6451C33.9059 23.6456 32.6124 23.6451 31.3188 23.6451C31.3177 20.6065 31.3182 17.5674 31.3182 14.5288C31.3124 13.9424 31.332 13.3554 31.3039 12.769C31.2567 12.0053 31.0821 11.214 30.6078 10.5973C30.2714 10.1556 29.7742 9.85011 29.2373 9.7208C28.8054 9.60745 28.3554 9.61171 27.9124 9.62129C27.0013 9.6596 26.1232 10.0646 25.4685 10.6957C24.5367 11.5828 24.0502 12.8765 24.0401 14.1536C24.0401 17.3173 24.0406 20.4814 24.0396 23.6451C22.7444 23.6456 21.4492 23.6456 20.154 23.6451C20.153 16.974 20.154 10.303 20.1535 3.63193C17.5387 3.63193 14.9245 3.63193 12.3103 3.63193C12.3092 10.3046 12.3103 16.9772 12.3092 23.6493C10.9668 23.6498 9.62442 23.6493 8.28202 23.6498C8.28096 16.9772 8.28255 10.3046 8.28149 3.63246C5.52082 3.63033 2.76014 3.63512 0 3.6298V0Z" fill="white"/>
<path d="M67.5353 0H71.4044C71.4038 7.88328 71.4049 15.7666 71.4038 23.6498C70.1145 23.6493 68.8251 23.6504 67.5358 23.6493C67.5353 22.8937 67.5347 22.138 67.5358 21.3824C67.1554 22.0119 66.5977 22.5158 65.9844 22.9123C65.0834 23.4918 64.0429 23.8457 62.9785 23.951C62.3365 24.0415 61.6866 23.9787 61.0498 23.8771C60.0767 23.7126 59.1408 23.3263 58.338 22.7494C57.5363 22.1774 56.8704 21.4249 56.3626 20.582C55.4059 18.9935 54.999 17.1166 55.009 15.2733C54.9931 14.1616 55.1311 13.0441 55.4531 11.9787C55.9296 10.3886 56.8369 8.90182 58.1507 7.87264C59.3461 6.92222 60.8716 6.41667 62.3949 6.42945C63.5696 6.41029 64.7502 6.71362 65.7615 7.31654C66.472 7.7396 67.1097 8.31007 67.5363 9.02581C67.5342 6.01756 67.5358 3.00878 67.5353 0ZM62.3705 9.67344C61.7126 9.78519 61.0902 10.0875 60.5903 10.5307C59.9855 11.0618 59.561 11.7744 59.2941 12.5295C58.8755 13.729 58.8022 15.029 58.9397 16.2854C59.0882 17.5434 59.5329 18.8227 60.4482 19.7284C61.1623 20.4495 62.1832 20.838 63.1945 20.7895C63.9081 20.8263 64.6239 20.6198 65.223 20.2324C66.1356 19.6481 66.7824 18.7115 67.1432 17.6983C67.5156 16.6718 67.5857 15.5612 67.5125 14.4788C67.4302 13.4139 67.1161 12.3518 66.5144 11.4631C66.0369 10.7558 65.3689 10.1609 64.5693 9.84958C63.8742 9.56914 63.1011 9.57552 62.3705 9.67344Z" fill="white"/>
<path d="M90.9637 0H92.218C93.0293 0.0537472 93.849 0.0239468 94.6646 0.0505543C91.7919 7.93171 88.9182 15.8129 86.044 23.6935C84.8109 23.6749 83.5778 23.6642 82.3447 23.6445C85.2131 15.7612 88.0916 7.88169 90.9637 0Z" fill="#FFFF00"/>
<path d="M95.3678 2.25171C95.458 2.19849 95.5657 2.22244 95.6671 2.21712C97.912 2.21765 100.157 2.21765 102.402 2.21712C102.575 2.2118 102.759 2.21712 102.913 2.31078C103.211 2.47255 103.362 2.85836 103.248 3.17925C102.963 3.9482 102.666 4.7129 102.382 5.48239C102.323 5.65854 102.483 5.85916 102.667 5.84479C105.057 5.84692 107.447 5.84053 109.837 5.84851C110.127 5.86022 110.192 6.31947 109.917 6.41259C105.393 8.50767 100.87 10.6017 96.3462 12.6968C96.1303 12.8378 95.8236 12.593 95.9202 12.3519C96.2385 11.4962 96.5643 10.6427 96.8853 9.78803C96.9713 9.62146 96.8466 9.39956 96.663 9.38146C95.4278 9.37508 94.1925 9.38466 92.9579 9.37667C92.7865 9.36603 92.6777 9.15902 92.761 9.00949C93.5919 6.80745 94.4228 4.60541 95.2532 2.40337C95.2723 2.34164 95.31 2.28523 95.3678 2.25171Z" fill="#FFFF00"/>
<path d="M41.8728 6.92325C42.8321 6.54489 43.862 6.3762 44.8882 6.33416C45.9547 6.29319 47.0328 6.36556 48.0691 6.63163C48.9785 6.86578 49.8556 7.2617 50.5894 7.85505C51.2144 8.35633 51.7254 8.99704 52.0888 9.71172C52.4815 10.4796 52.7118 11.3241 52.8258 12.1777C52.9664 13.184 52.9038 14.2031 52.9176 15.2158C52.9176 18.0314 52.9176 20.847 52.9182 23.6626C51.6209 23.6637 50.3241 23.6626 49.0273 23.6631C49.0263 20.6187 49.0273 17.5743 49.0268 14.5298C49.0225 13.8338 49.0623 13.1271 48.8952 12.4454C48.7169 11.6488 48.2802 10.891 47.6032 10.4211C46.7999 9.85434 45.7674 9.71545 44.8107 9.83359C43.9904 9.9331 43.1855 10.3104 42.657 10.9591C42.0431 11.6966 41.8187 12.6811 41.8155 13.6236C41.8144 16.9697 41.8155 20.3164 41.815 23.6626C40.5182 23.6637 39.2209 23.6626 37.9241 23.6631C37.9241 20.3696 37.9241 17.0762 37.9241 13.7832C37.9119 12.679 38.0382 11.5625 38.4075 10.5179C38.6999 9.68778 39.1572 8.9103 39.778 8.28449C40.3665 7.68423 41.0934 7.22977 41.8728 6.92325Z" fill="white"/>
<path d="M79.7926 6.54326C80.6129 6.40597 81.447 6.39745 82.2769 6.40384C82.2769 7.55967 82.2779 8.7155 82.2769 9.87133C81.6428 9.86867 80.995 9.8575 80.3832 10.0485C79.6977 10.2486 79.0779 10.6813 78.6789 11.2778C78.3139 11.8126 78.1213 12.4507 78.0507 13.0908C78.003 13.4969 78.0162 13.9061 78.0146 14.3143C78.0146 17.4582 78.0152 20.6027 78.0146 23.7466C76.7179 23.7477 75.4211 23.7472 74.1243 23.7472C74.1233 20.9406 74.1238 18.134 74.1238 15.3275C74.1381 14.2621 74.0702 13.1893 74.2342 12.1319C74.3854 11.1006 74.7143 10.0815 75.2943 9.20987C75.7681 8.4888 76.4138 7.88481 77.1577 7.45005C77.9642 6.9743 78.8721 6.6912 79.7926 6.54326Z" fill="white"/>
</g>
<defs>
<clipPath id="clip0_7744_9570">
<rect width="111" height="24" fill="white"/>
</clipPath>
</defs>
</svg>
