<svg xmlns="http://www.w3.org/2000/svg" width="113.925" height="21.701" fill="none" overflow="visible"><g><path d="M 0.592 0.019 C 1.946 -0.018 3.304 0.012 4.66 0.003 C 5.065 -0.027 5.446 0.327 5.428 0.738 C 5.435 7.308 5.428 13.882 5.432 20.453 C 5.48 20.861 5.163 21.279 4.742 21.283 C 3.409 21.293 2.075 21.288 0.742 21.286 C 0.547 21.288 0.359 21.211 0.221 21.073 C 0.083 20.935 0.006 20.747 0.008 20.551 C 0.001 13.979 0.008 7.408 0.004 0.837 C -0.036 0.467 0.214 0.08 0.592 0.019 Z M 8.578 0.012 C 9.906 -0.011 11.236 0.007 12.565 0.002 C 12.905 -0.024 13.247 0.199 13.332 0.532 C 13.38 0.762 13.356 0.996 13.362 1.227 C 13.358 7.666 13.363 14.103 13.359 20.541 C 13.379 20.93 13.04 21.291 12.649 21.285 C 11.345 21.294 10.042 21.285 8.738 21.289 C 8.398 21.315 8.054 21.097 7.965 20.762 C 7.915 20.533 7.939 20.296 7.935 20.064 C 7.937 13.624 7.933 7.183 7.937 0.743 C 7.923 0.383 8.217 0.04 8.577 0.011 Z M 16.474 0.015 C 17.802 -0.016 19.13 0.012 20.459 0.002 C 20.729 -0.016 21.015 0.088 21.166 0.323 C 21.332 0.557 21.283 0.859 21.292 1.127 C 21.287 7.6 21.294 14.072 21.288 20.545 C 21.308 20.945 20.95 21.304 20.55 21.285 C 19.245 21.291 17.94 21.288 16.635 21.288 C 16.283 21.305 15.968 21.068 15.887 20.724 C 15.846 20.444 15.87 20.159 15.866 19.878 L 15.865 0.832 C 15.825 0.456 16.088 0.064 16.474 0.015 Z" fill="rgba(255,255,255,0.8)"></path><path d="M 30.501 3.001 C 34.654 3.001 38.806 2.999 42.958 3.001 L 42.958 6.078 C 41.513 6.081 40.068 6.076 38.624 6.08 L 38.624 17.99 L 34.857 17.99 C 34.855 14.019 34.857 10.05 34.855 6.079 C 33.405 6.079 31.955 6.076 30.505 6.081 C 30.495 5.054 30.505 4.027 30.502 3.001 Z M 50.428 3.001 C 51.544 2.999 52.66 3.001 53.777 3.001 L 53.777 5.973 L 50.429 5.973 C 50.427 4.983 50.428 3.993 50.428 3.001 Z M 68.177 3 L 71.527 3.001 L 71.526 17.989 L 68.176 17.989 L 68.176 3 Z M 84.968 3.002 C 88.646 3.001 92.324 2.999 96.002 3.002 C 95.999 4.028 96.002 5.055 96 6.082 C 93.71 9.024 91.414 11.962 89.13 14.909 C 91.49 14.917 93.85 14.909 96.21 14.913 C 96.21 15.939 96.212 16.963 96.21 17.989 L 84.551 17.989 C 84.549 16.965 84.551 15.939 84.549 14.916 C 86.834 11.967 89.14 9.036 91.417 6.081 C 89.267 6.074 87.118 6.081 84.969 6.078 L 84.969 3.002 Z M 97.583 3 L 100.933 3.001 L 100.932 5.973 L 97.585 5.973 C 97.583 4.983 97.583 3.993 97.583 3 Z M 76.886 7.089 C 78.244 6.779 79.715 6.839 81.015 7.363 C 82.203 7.85 83.107 8.896 83.513 10.105 C 83.903 11.197 83.973 12.37 83.954 13.52 C 81.384 13.514 78.815 13.518 76.247 13.518 C 76.258 14.128 76.449 14.762 76.904 15.19 C 77.575 15.836 78.622 15.948 79.482 15.669 C 79.937 15.522 80.282 15.153 80.472 14.722 L 83.873 14.722 C 83.536 15.979 82.683 17.102 81.505 17.677 C 80.171 18.333 78.611 18.45 77.159 18.2 C 75.622 17.924 74.219 16.922 73.539 15.504 C 72.728 13.819 72.695 11.776 73.406 10.051 C 74.027 8.565 75.32 7.465 76.886 7.089 Z M 77.323 9.59 C 76.635 9.933 76.31 10.711 76.267 11.443 C 77.709 11.446 79.149 11.444 80.591 11.444 C 80.592 10.751 80.336 9.993 79.703 9.634 C 78.985 9.235 78.057 9.232 77.323 9.59 Z M 58.966 8.377 C 60.461 6.562 63.484 6.49 65.152 8.102 C 66.336 9.232 66.756 10.935 66.769 12.524 C 66.79 14.153 66.41 15.91 65.224 17.1 C 63.573 18.781 60.477 18.74 58.966 16.891 C 58.961 18.495 58.966 20.097 58.964 21.701 L 55.615 21.701 L 55.615 7.283 L 58.965 7.283 C 58.963 7.648 58.963 8.013 58.966 8.377 Z M 60.675 9.521 C 60.197 9.636 59.785 9.939 59.535 10.362 C 59.095 11.09 59.021 11.971 59.03 12.804 C 59.053 13.6 59.172 14.451 59.669 15.103 C 60.381 16.061 62.029 16.047 62.722 15.073 C 63.252 14.341 63.342 13.396 63.338 12.52 C 63.318 11.668 63.193 10.74 62.616 10.071 C 62.146 9.524 61.356 9.361 60.675 9.521 Z M 106.121 8.383 C 107.617 6.55 110.671 6.49 112.333 8.127 C 113.499 9.257 113.91 10.942 113.925 12.519 C 113.946 14.139 113.573 15.883 112.403 17.077 C 110.759 18.781 107.63 18.753 106.119 16.884 L 106.119 21.701 L 102.77 21.701 L 102.77 7.284 C 103.887 7.282 105.003 7.284 106.119 7.284 C 106.118 7.649 106.118 8.016 106.121 8.384 Z M 107.79 9.532 C 107.244 9.663 106.803 10.08 106.569 10.582 C 106.214 11.329 106.163 12.177 106.192 12.992 C 106.232 13.742 106.37 14.535 106.852 15.138 C 107.571 16.052 109.162 16.036 109.856 15.1 C 110.407 14.364 110.498 13.403 110.493 12.513 C 110.473 11.67 110.349 10.76 109.791 10.093 C 109.315 9.521 108.49 9.352 107.79 9.532 Z" fill="rgb(255,255,255)"></path><path d="M 46.583 7.415 C 47.269 6.958 48.145 6.925 48.93 7.092 L 48.93 10.011 C 48.058 9.867 47.1 9.991 46.384 10.541 C 45.711 11.04 45.366 11.881 45.354 12.703 C 45.343 14.403 45.354 16.103 45.349 17.803 L 42.001 17.803 C 41.999 14.233 42.001 10.665 42.001 7.096 L 45.351 7.097 C 45.353 7.693 45.343 8.288 45.357 8.885 C 45.659 8.319 46.023 7.756 46.583 7.415 Z M 50.042 7.097 C 51.158 7.095 52.275 7.096 53.391 7.096 L 53.391 17.802 L 50.042 17.802 Z M 97.197 7.096 L 100.547 7.096 L 100.546 17.802 L 97.199 17.802 C 97.197 14.233 97.197 10.664 97.197 7.096 Z" fill="rgb(255,255,255)"></path></g></svg>