<svg width="101" height="24" viewBox="0 0 101 24" fill="none" xmlns="http://www.w3.org/2000/svg">
<g clip-path="url(#clip0_7744_8607)">
<path d="M30.5679 0.373413H26.3755V4.56802H30.5679V0.373413Z" fill="url(#paint0_linear_7744_8607)"/>
<path d="M101 15.0262H96.8081V19.2208H101V15.0262Z" fill="url(#paint1_linear_7744_8607)"/>
<path d="M75.2856 9.1554H71.0933V13.3501H75.2856V9.1554Z" fill="url(#paint2_linear_7744_8607)"/>
<path d="M89.0126 15.2216H82.4389L81.2047 19.2216H76.375L83.3243 0.0270081H88.154L95.0765 19.2216H90.2468L89.0126 15.2216ZM83.5389 11.5437H87.9394L85.766 4.45651H85.7123L83.5389 11.5437Z" fill="white"/>
<path d="M61.9964 16.4294C63.4722 16.4294 64.1698 15.7314 64.4381 15.0603H68.7043C67.953 17.8253 65.8065 19.6508 62.077 19.6508C57.5156 19.6508 54.752 16.6441 54.752 12.3488C54.752 8.16095 57.4619 5.04688 61.8355 5.04688C66.5311 5.04688 68.919 8.48309 68.919 13.4764H59.0451C59.0451 15.4093 60.467 16.4294 61.9964 16.4294ZM61.8355 7.99987C60.1988 7.99987 59.0451 8.96632 59.0451 10.8723H64.626C64.626 8.96632 63.4722 7.99987 61.8355 7.99987Z" fill="white"/>
<path d="M48.8135 0.0270081H53.1065V19.2216H48.8135V0.0270081Z" fill="white"/>
<path d="M41.0946 5.04688C44.7437 5.04688 47.0781 7.83881 47.0781 12.3488C47.0781 16.8589 44.7437 19.6508 41.0946 19.6508C39.109 19.6508 37.6602 18.577 37.1235 17.8522H37.0699V23.973H32.7769V5.4764H37.0699V6.84552H37.1235C37.6602 6.12069 39.109 5.04688 41.0946 5.04688ZM39.9677 16.4294C41.7117 16.4294 42.7849 15.0334 42.7849 12.3488C42.7849 9.6643 41.7117 8.26833 39.9677 8.26833C38.2237 8.26833 37.1504 9.6643 37.1504 12.3488C37.1504 15.0334 38.2237 16.4294 39.9677 16.4294Z" fill="white"/>
<path d="M26.251 5.47585H30.5441V19.2207H26.251V5.47585Z" fill="white"/>
<path d="M23.5444 5.23517C23.92 5.23517 24.242 5.23517 24.7249 5.34255V9.10092H24.6713C22.4711 8.69824 20.1368 9.90629 20.1368 12.8324V19.2217H15.8438V5.47679H20.1368V7.7318H20.1904C20.8612 6.20161 22.0417 5.23517 23.5444 5.23517Z" fill="white"/>
<path d="M5.58096 19.2216V3.97329H0V0.0270081H15.9648V3.97329H10.4106V19.2216H5.58096Z" fill="white"/>
</g>
<defs>
<linearGradient id="paint0_linear_7744_8607" x1="24.3086" y1="2.49032" x2="30.5679" y2="2.47935" gradientUnits="userSpaceOnUse">
<stop stop-color="#E22323"/>
<stop offset="0.5" stop-color="#F06B28"/>
<stop offset="1" stop-color="#E96991"/>
</linearGradient>
<linearGradient id="paint1_linear_7744_8607" x1="94.7411" y1="17.1431" x2="101" y2="17.1321" gradientUnits="userSpaceOnUse">
<stop stop-color="#E22323"/>
<stop offset="0.5" stop-color="#F06B28"/>
<stop offset="1" stop-color="#E96991"/>
</linearGradient>
<linearGradient id="paint2_linear_7744_8607" x1="69.0263" y1="11.2723" x2="75.2856" y2="11.2613" gradientUnits="userSpaceOnUse">
<stop stop-color="#E22323"/>
<stop offset="0.5" stop-color="#F06B28"/>
<stop offset="1" stop-color="#E96991"/>
</linearGradient>
<clipPath id="clip0_7744_8607">
<rect width="101" height="24" fill="white"/>
</clipPath>
</defs>
</svg>
