<svg xmlns="http://www.w3.org/2000/svg" width="90" height="24" fill="none" overflow="visible"><g><path d="M 0 0 L 90 0 L 90 24 L 0 24 Z" fill="transparent"></path><path d="M 26.682 0 L 23.197 0 L 23.197 3.441 L 26.682 3.441 Z M 70.661 9.252 L 66.69 9.252 L 66.69 13.173 L 70.662 13.173 L 70.662 9.253 Z" fill="rgba(255,255,255,0.6)"></path><path d="M 82.608 0.016 L 74.454 0 L 74.454 3.441 L 76.804 3.441 L 70.661 19.159 L 74.973 19.159 L 76.367 15.526 L 84.31 15.526 L 85.656 19.159 L 90 19.159 Z M 77.502 12.084 L 80.338 4.61 L 83.126 12.084 Z M 15.919 0 L 0 0 L 0 3.441 L 6.046 3.441 L 6.046 19.175 L 9.872 19.175 L 9.872 3.441 L 15.919 3.441 Z" fill="rgb(255,255,255)"></path><path d="M 15.918 7.011 L 15.918 5.121 L 12.206 5.121 L 12.206 19.175 L 16 19.175 L 16 12.965 C 16 9.219 17.573 8.563 21.382 8.563 L 21.382 5.106 C 20.15 4.866 17.848 4.754 15.919 7.011 Z M 26.747 5.123 L 23.133 5.123 L 23.133 19.175 L 26.747 19.175 Z M 36.862 4.722 C 34.998 4.722 33.474 5.474 32.21 7.219 L 32.161 7.219 L 32.161 5.122 L 28.595 5.122 L 28.595 23.785 L 32.21 23.785 L 32.21 17.366 C 33.02 18.519 34.43 19.607 36.603 19.607 C 40.023 19.607 43.136 16.807 43.136 12.1 C 43.136 8.05 40.786 4.722 36.862 4.722 Z M 35.776 16.23 C 33.686 16.23 32.129 14.565 32.129 12.18 C 32.129 9.796 33.685 8.099 35.776 8.099 C 37.867 8.099 39.391 9.779 39.391 12.18 C 39.391 14.565 37.9 16.23 35.776 16.23 Z M 57.433 16.439 C 55.553 16.439 53.915 15.286 53.607 13.173 L 64.16 13.173 L 64.16 12.213 C 64.16 7.043 60.805 4.738 57.206 4.738 C 52.991 4.738 49.992 7.908 49.992 12.245 C 49.992 16.583 53.202 19.624 57.465 19.624 C 60.821 19.624 63.252 17.831 64.209 15.542 L 60.821 14.214 C 60.189 15.654 58.924 16.439 57.433 16.439 Z M 57.173 7.747 C 58.795 7.747 60.253 8.58 60.513 10.741 L 53.786 10.741 C 54.158 8.98 55.326 7.747 57.174 7.747 Z M 42.439 0 L 42.439 3.441 L 44.773 3.441 L 44.773 19.175 L 48.388 19.175 L 48.388 0 L 42.438 0 Z" fill="rgb(255,255,255)"></path></g></svg>