<svg width="105" height="24" viewBox="0 0 105 24" fill="none" xmlns="http://www.w3.org/2000/svg">
<g clip-path="url(#clip0_7744_8693)">
<ellipse cx="11.9354" cy="11.936" rx="10.9881" ry="10.9887" fill="#FEFEFE"/>
<path d="M9.56391 0.311431C11.91 -0.175842 14.4029 0.0488851 16.6152 0.976158C18.6369 1.81252 20.4128 3.22634 21.6978 4.99579C23.1385 6.9747 23.9573 9.40743 23.9675 11.8576C24.0104 13.7696 23.5683 15.6882 22.7101 17.3958C21.6273 19.5616 19.8674 21.3834 17.7395 22.5383C16.0356 23.478 14.0989 23.9638 12.1572 24.0002H11.8932C9.37265 23.9667 6.86515 23.1383 4.85144 21.6162C2.80645 20.0889 1.26472 17.8962 0.543303 15.4467C0.0546021 13.7914 -0.0777544 12.0307 0.17096 10.3223C0.514214 7.84598 1.67197 5.49543 3.41442 3.70489C5.06379 1.99361 7.23458 0.789249 9.56391 0.311431ZM11.5267 5.2147C10.2657 5.43725 9.21702 6.36598 8.64905 7.48743C8.14144 8.52234 8.13053 9.7427 8.44252 10.8372C8.66796 11.5914 9.1203 12.2518 9.61845 12.8518C10.4351 13.8249 11.3602 14.6991 12.283 15.5703C13.3252 16.5456 14.3833 17.5056 15.4581 18.4452C15.6036 18.5885 15.7229 18.7718 15.9236 18.8452C16.2806 18.9783 16.7359 18.8838 16.957 18.5573C18.5031 16.4445 20.0572 14.3369 21.5975 12.2191C21.8898 11.8256 21.7458 11.2016 21.3102 10.9776C20.9575 10.7631 20.4535 10.8532 20.2033 11.1827C18.8551 13.0183 17.5126 14.8591 16.1694 16.6991C16.1541 16.7005 16.1228 16.7034 16.1068 16.7049C14.6211 15.4023 13.1572 14.0714 11.7667 12.6656C11.2875 12.174 10.8177 11.6642 10.4402 11.0882C10.0752 10.5463 9.91953 9.88379 9.94498 9.23507C9.95516 8.6067 10.2351 7.99725 10.6831 7.56016C11.0591 7.16016 11.5834 6.87289 12.142 6.87361C12.9281 6.84161 13.6466 7.33325 14.0808 7.95943C14.6575 8.86198 14.4931 10.1063 13.8393 10.9252C13.6328 11.1812 13.3826 11.4009 13.1084 11.582C12.7405 11.838 12.651 12.3965 12.9121 12.7587C13.1448 13.1202 13.6641 13.2402 14.0357 13.0292C14.5636 12.702 15.0247 12.2649 15.3745 11.7507C16.0552 10.7769 16.2966 9.51943 16.0741 8.35725C15.6923 6.34707 13.5572 4.81761 11.5267 5.2147ZM2.61665 11.0605C2.25667 11.3202 2.18612 11.8831 2.45084 12.2336C3.98821 14.3376 5.52704 16.4402 7.06514 18.5442C7.35385 18.9631 8.03381 19.0169 8.37416 18.6329C9.15157 17.7376 9.91444 16.8293 10.6875 15.9289C11.0431 15.5485 10.934 14.8554 10.4686 14.614C10.113 14.4089 9.62354 14.5034 9.37192 14.8271C8.85486 15.4416 8.32761 16.0474 7.81346 16.6642C6.55607 14.9711 5.31759 13.2634 4.06821 11.5645C3.92203 11.3762 3.80422 11.1543 3.59987 11.022C3.30897 10.822 2.89227 10.8445 2.61665 11.0605Z" fill="url(#paint0_linear_7744_8693)"/>
<path d="M51.7065 5.81835C52.0331 5.81835 52.3603 5.81908 52.6869 5.81763C52.6898 9.28526 52.6883 12.7529 52.6883 16.2198C52.3603 16.2169 52.0338 16.2191 51.7065 16.2184C51.7065 12.7514 51.7065 9.28526 51.7065 5.81835Z" fill="white"/>
<path d="M54.1787 5.81823C54.5052 5.8175 54.8318 5.81968 55.1583 5.81677C55.1634 9.28441 55.159 12.7513 55.1605 16.219C54.8332 16.2175 54.506 16.2182 54.1787 16.2182C54.1787 12.7513 54.1787 9.28514 54.1787 5.81823Z" fill="white"/>
<path d="M64.5034 6.36434C64.8314 6.36289 65.1594 6.36362 65.4874 6.36362C65.4874 7.22398 65.4874 8.08507 65.4874 8.94543C66.9178 8.94543 68.3476 8.94543 69.778 8.94543C69.778 9.24871 69.778 9.55125 69.778 9.85452C68.3476 9.85452 66.9178 9.85452 65.4874 9.85452C65.4874 11.0545 65.4866 12.2545 65.4881 13.4545C65.4925 13.9433 65.5623 14.4589 65.859 14.864C66.1921 15.3338 66.7964 15.5294 67.3527 15.5142C67.9061 15.5294 68.5047 15.336 68.8392 14.8713C69.1584 14.448 69.2144 13.896 69.2166 13.3818C69.5366 13.3818 69.8566 13.3818 70.178 13.3818C70.2115 14.12 70.0733 14.9033 69.6086 15.4982C69.1752 16.0618 68.4727 16.3578 67.7782 16.4225C66.9884 16.488 66.131 16.3927 65.4852 15.8953C64.8409 15.4174 64.5354 14.6036 64.5063 13.8225C64.5034 11.336 64.5085 8.85016 64.5034 6.36434Z" fill="white"/>
<path d="M44.2587 9.35296C45.1815 8.74496 46.3524 8.60605 47.4236 8.80677C48.4417 8.99877 49.3842 9.62568 49.8896 10.5391C50.2074 11.0911 50.3703 11.7246 50.3965 12.358C50.398 13.6446 50.3972 14.9319 50.3972 16.2184C50.094 16.2184 49.7907 16.2184 49.4882 16.2184C49.4875 15.6191 49.4889 15.0206 49.4875 14.4213C49.3471 14.9384 48.985 15.3711 48.585 15.7166C47.7588 16.3915 46.6178 16.558 45.5902 16.3719C44.5656 16.1857 43.6202 15.5486 43.1111 14.633C42.618 13.7762 42.5198 12.7399 42.6806 11.7784C42.8551 10.8024 43.4202 9.89186 44.2587 9.35296ZM45.7837 9.72605C44.9248 9.91223 44.1787 10.5413 43.8565 11.3595C43.5249 12.1835 43.5467 13.1457 43.9205 13.9522C44.239 14.6235 44.8426 15.1602 45.5575 15.3733C46.244 15.5879 47.0062 15.5653 47.6767 15.3028C48.2963 15.0591 48.8111 14.569 49.102 13.9719C49.4635 13.2053 49.5035 12.297 49.2271 11.4977C48.9966 10.8126 48.4766 10.2315 47.8236 9.92459C47.1909 9.6315 46.4607 9.57841 45.7837 9.72605Z" fill="white"/>
<path d="M59.1221 8.79801C60.1555 8.61401 61.2777 8.74783 62.1729 9.3231C62.9968 9.83365 63.575 10.7027 63.7655 11.6504C63.8579 12.0511 63.8579 12.4635 63.8513 12.8729C61.5984 12.8744 59.3461 12.87 57.0939 12.8751C57.1601 13.6438 57.5055 14.406 58.1164 14.8926C58.9047 15.5391 60.0268 15.6584 60.9839 15.3718C61.6056 15.1842 62.1409 14.7486 62.4572 14.182C62.8245 14.1813 63.1917 14.1827 63.5597 14.1813C63.1576 15.1813 62.2827 15.9675 61.2471 16.2642C60.0777 16.598 58.7418 16.4809 57.7142 15.8016C56.8808 15.2642 56.3186 14.3602 56.139 13.3915C55.9681 12.4329 56.0787 11.3987 56.5783 10.55C57.107 9.62128 58.0764 8.98346 59.1221 8.79801ZM58.3651 10.0787C57.6866 10.4904 57.2415 11.222 57.1208 11.9995C59.0152 12.0002 60.9104 12.0009 62.8056 11.9995C62.7198 11.4613 62.4972 10.9362 62.1227 10.5355C61.1933 9.51437 59.5228 9.37983 58.3651 10.0787Z" fill="white"/>
<path d="M77.0038 8.82911C78.1303 8.58839 79.3797 8.73457 80.3418 9.39929C81.1178 9.92657 81.637 10.7862 81.8087 11.7033C81.9163 12.1833 81.8814 12.6771 81.8865 13.1651C81.8857 14.0873 81.8865 15.0087 81.8865 15.9309C81.8523 16.9302 81.5454 17.9833 80.7825 18.672C80.0066 19.3797 78.9106 19.6051 77.8881 19.5673C76.9449 19.5564 75.9573 19.2895 75.2599 18.6262C74.8454 18.2378 74.561 17.728 74.3989 17.1862C74.7385 17.1767 75.0788 17.1833 75.4192 17.1818C75.6468 17.8117 76.19 18.2997 76.8235 18.5026C77.5856 18.744 78.4256 18.7571 79.1906 18.52C79.8328 18.3193 80.3753 17.8277 80.6247 17.2015C80.9723 16.3811 80.8916 15.4713 80.9069 14.6022C80.5229 15.4655 79.6815 16.0786 78.7674 16.2727C77.7391 16.4938 76.6111 16.3447 75.7195 15.768C74.9087 15.2589 74.3567 14.3913 74.1807 13.4553C74.012 12.5418 74.0905 11.5593 74.5218 10.7251C75.001 9.75566 75.9515 9.05602 77.0038 8.82911ZM77.2765 9.72511C76.4511 9.90475 75.7181 10.4837 75.3835 11.264C74.8556 12.4444 75.089 14.0117 76.1377 14.8342C76.9129 15.4517 77.9987 15.5789 78.9368 15.3157C79.7091 15.0975 80.3702 14.5186 80.6669 13.7695C81.1556 12.5746 80.8705 11.0247 79.8109 10.2269C79.1026 9.67638 78.139 9.53675 77.2765 9.72511Z" fill="white"/>
<path d="M91.7779 9.53332C92.231 9.0635 92.8753 8.82059 93.5153 8.74859C94.4221 8.65623 95.4177 8.77696 96.1384 9.3835C96.8707 10.0046 97.1282 11.0177 97.0853 11.9457C96.7653 11.9457 96.4446 11.9464 96.1253 11.945C96.1137 11.337 96.0184 10.6788 95.5828 10.2184C95.057 9.66859 94.2265 9.57186 93.5109 9.69332C92.9873 9.77986 92.4877 10.0919 92.2441 10.5733C91.9939 11.0293 91.9605 11.5617 91.9583 12.0708C91.9634 13.4511 91.951 14.8308 91.9648 16.2104C91.6354 16.2264 91.3059 16.2148 90.9772 16.2184C90.9772 14.6664 90.9765 13.1144 90.978 11.5624C91.0092 10.8264 91.2383 10.0584 91.7779 9.53332Z" fill="white"/>
<path d="M30.9076 8.94568C31.2334 8.94423 31.5585 8.94932 31.8843 8.94205C31.8974 10.35 31.8843 11.7588 31.8909 13.1675C31.9003 13.7122 31.984 14.2824 32.3039 14.7391C33.0508 15.8388 34.9642 15.7682 35.6259 14.6111C35.9474 14.0948 35.9837 13.4679 35.9619 12.8759C35.9619 11.5653 35.9612 10.2548 35.9619 8.94496C36.295 8.94641 36.6281 8.94496 36.9619 8.94568C36.9619 10.1566 36.9619 11.3668 36.9619 12.577C36.9524 13.2839 36.9357 14.0475 37.3335 14.6657C37.98 15.7086 39.6519 15.8082 40.4664 14.9173C40.8882 14.4424 41.0075 13.7857 41.0147 13.1697C41.0184 11.7617 41.0147 10.3537 41.0162 8.94568C41.342 8.94423 41.6671 8.94932 41.9929 8.94205C42.0052 10.4475 41.9943 11.953 41.9987 13.4584C41.9754 14.2148 41.7594 14.998 41.2453 15.5719C40.7166 16.1639 39.9057 16.4504 39.1232 16.438C38.4687 16.4606 37.7916 16.2897 37.2688 15.8853C36.9095 15.617 36.6361 15.2446 36.4601 14.8344C36.1263 15.6191 35.3954 16.214 34.5569 16.3726C33.8129 16.5108 33.0057 16.4562 32.3301 16.0933C31.3956 15.6133 30.9404 14.5406 30.9091 13.5319C30.9055 12.0031 30.9084 10.4744 30.9076 8.94568Z" fill="white"/>
<path d="M82.8318 8.94508C83.1598 8.94727 83.4885 8.93927 83.8172 8.9509C83.8085 10.0389 83.8158 11.1276 83.8136 12.2164C83.81 12.7996 83.8092 13.3989 84.0129 13.9545C84.2274 14.5909 84.735 15.124 85.3728 15.3465C86.0287 15.5713 86.7633 15.5749 87.4221 15.3574C88.0803 15.1385 88.6082 14.5894 88.8213 13.932C89.0271 13.3604 89.0148 12.7444 89.0133 12.1451C89.0133 11.0789 89.0133 10.012 89.0133 8.94508C89.3398 8.94436 89.6671 8.94727 89.9944 8.9429C89.9958 9.93708 89.9944 10.9305 89.9951 11.924C89.9864 12.6273 90.0482 13.3436 89.8518 14.0287C89.6467 14.8476 89.1217 15.6004 88.3653 15.9967C87.585 16.4244 86.6644 16.4964 85.7946 16.4076C84.9306 16.3094 84.0703 15.9204 83.5402 15.2127C83.0333 14.548 82.8275 13.6949 82.8311 12.8694C82.8326 11.5611 82.8311 10.2534 82.8318 8.94508Z" fill="white"/>
<path d="M97.5218 8.94534C97.8498 8.94679 98.1778 8.94097 98.5065 8.94897C98.5007 10.1853 98.5051 11.4217 98.5043 12.6573C98.5109 13.2726 98.6003 13.9133 98.9378 14.4413C99.2548 14.9599 99.7981 15.3184 100.39 15.4406C100.991 15.5664 101.636 15.5439 102.212 15.3199C102.827 15.0842 103.31 14.5526 103.513 13.9286C103.692 13.4275 103.705 12.8879 103.703 12.3613C103.703 11.2224 103.703 10.0842 103.703 8.94534C104.03 8.94534 104.357 8.94607 104.685 8.94461C104.685 9.98679 104.685 11.0297 104.685 12.0719C104.678 12.6588 104.724 13.2537 104.589 13.8312C104.444 14.5381 104.092 15.2181 103.527 15.6792C102.85 16.2377 101.948 16.4581 101.083 16.437C100.257 16.4508 99.3996 16.2428 98.74 15.7279C97.8149 15.0144 97.4717 13.7832 97.5218 12.6573C97.5218 11.4195 97.5218 10.1824 97.5218 8.94534Z" fill="white"/>
</g>
<defs>
<linearGradient id="paint0_linear_7744_8693" x1="5.98748e-06" y1="11.936" x2="24.0602" y2="11.936" gradientUnits="userSpaceOnUse">
<stop stop-color="#302882"/>
<stop offset="1" stop-color="#45AFC9"/>
</linearGradient>
<clipPath id="clip0_7744_8693">
<rect width="104.94" height="24" fill="white"/>
</clipPath>
</defs>
</svg>
